<?xml version="1.0" standalone="no"?>
<!DOCTYPE svg PUBLIC "-//W3C//DTD SVG 20010904//EN"
 "http://www.w3.org/TR/2001/REC-SVG-20010904/DTD/svg10.dtd">
<svg version="1.0" xmlns="http://www.w3.org/2000/svg"
 width="400.000000pt" height="400.000000pt" viewBox="0 0 400.000000 400.000000"
 preserveAspectRatio="xMidYMid meet">
<metadata>
Created by potrace 1.15, written by Peter Selinger 2001-2017
</metadata>
<g transform="translate(0.000000,400.000000) scale(0.100000,-0.100000)"
fill="#000000" stroke="none">
<path d="M196 3993 c-10 -3 -57 -44 -105 -91 l-86 -87 0 -119 c0 -87 3 -120
13 -123 6 -3 12 -11 12 -19 0 -16 504 -524 521 -524 6 0 24 -13 39 -30 15 -16
35 -30 44 -30 9 0 16 -4 16 -10 0 -5 9 -10 20 -10 11 0 20 -4 20 -10 0 -5 9
-10 20 -10 11 0 20 -4 20 -10 0 -5 14 -10 30 -10 17 0 30 -4 30 -10 0 -5 18
-10 40 -10 22 0 40 -4 40 -10 0 -5 18 -10 40 -10 22 0 40 -4 40 -10 0 -5 18
-10 40 -10 22 0 40 -4 40 -10 0 -5 11 -10 24 -10 16 0 35 -14 59 -43 19 -24
191 -199 381 -390 233 -235 352 -347 366 -347 27 0 90 63 90 90 0 13 -131 151
-390 410 -306 306 -390 395 -390 415 0 14 -4 25 -10 25 -5 0 -10 18 -10 40 0
22 -4 40 -10 40 -5 0 -10 18 -10 40 0 22 -4 40 -10 40 -5 0 -10 15 -10 34 0
19 -4 38 -10 41 -5 3 -10 15 -10 26 0 10 -4 19 -10 19 -5 0 -10 9 -10 20 0 11
-4 20 -10 20 -5 0 -10 9 -10 20 0 11 -4 20 -10 20 -5 0 -10 9 -10 20 0 11 -4
20 -10 20 -5 0 -10 7 -10 15 0 8 -129 144 -287 303 l-288 287 -110 2 c-60 1
-118 -1 -129 -4z"/>
<path d="M1923 3993 c-7 -2 -13 -13 -13 -24 0 -10 -4 -19 -10 -19 -5 0 -10
-13 -10 -30 0 -16 -4 -30 -10 -30 -6 0 -10 -53 -10 -140 0 -87 4 -140 10 -140
6 0 10 -13 10 -30 0 -16 5 -30 10 -30 6 0 10 -9 10 -20 0 -11 5 -20 10 -20 6
0 10 -9 10 -20 0 -11 5 -20 10 -20 6 0 10 -9 10 -20 0 -11 5 -20 10 -20 6 0
10 -13 10 -30 0 -16 -4 -30 -10 -30 -5 0 -10 -7 -10 -15 0 -25 -46 -65 -75
-65 -14 0 -25 5 -25 10 0 6 -7 10 -15 10 -9 0 -27 11 -40 25 -22 21 -25 33
-25 90 0 37 4 65 10 65 6 0 10 43 10 110 0 103 -1 110 -20 110 -11 0 -20 5
-20 10 0 6 -18 10 -40 10 -22 0 -40 -4 -40 -10 0 -5 -7 -10 -15 -10 -19 0
-125 -104 -125 -123 0 -7 -9 -19 -20 -27 -11 -8 -20 -22 -20 -32 0 -10 -4 -18
-10 -18 -5 0 -10 -13 -10 -30 0 -16 -4 -30 -10 -30 -5 0 -10 -13 -10 -30 0
-16 -4 -30 -10 -30 -6 0 -10 -57 -10 -150 0 -93 4 -150 10 -150 6 0 10 -18 10
-40 0 -22 5 -40 10 -40 6 0 10 -9 10 -20 0 -11 5 -20 10 -20 6 0 10 -8 10 -18
0 -10 9 -24 20 -32 11 -8 20 -21 20 -28 0 -16 108 -122 124 -122 6 0 18 -9 26
-20 8 -11 22 -20 32 -20 10 0 18 -4 18 -10 0 -5 9 -10 20 -10 11 0 20 -4 20
-10 0 -5 14 -10 30 -10 17 0 30 -4 30 -10 0 -5 23 -10 50 -10 28 0 50 -4 50
-10 0 -6 30 -10 70 -10 40 0 70 4 70 10 0 6 23 10 50 10 28 0 50 5 50 10 0 6
14 10 30 10 17 0 30 5 30 10 0 6 9 10 20 10 11 0 20 5 20 10 0 6 8 10 18 10
10 0 24 9 32 20 8 11 20 20 26 20 16 0 124 106 124 122 0 7 9 20 20 28 11 8
20 22 20 32 0 10 5 18 10 18 6 0 10 9 10 20 0 11 5 20 10 20 6 0 10 14 10 30
0 17 5 30 10 30 6 0 10 18 10 39 0 22 5 43 10 46 6 3 10 35 10 71 0 36 -4 64
-10 64 -5 0 -10 23 -10 50 0 28 -4 50 -10 50 -5 0 -10 14 -10 30 0 17 -4 30
-10 30 -5 0 -10 9 -10 20 0 11 -4 20 -10 20 -5 0 -10 9 -10 20 0 11 -4 20 -10
20 -5 0 -10 8 -10 18 0 10 -9 24 -20 32 -11 8 -20 20 -20 27 0 16 -205 223
-220 223 -6 0 -49 38 -95 85 l-85 85 -58 -1 c-31 0 -63 -3 -69 -6z m167 -253
c38 -38 74 -70 80 -70 13 0 80 -66 80 -78 0 -5 18 -28 40 -51 22 -22 40 -47
40 -54 0 -7 9 -19 20 -27 11 -8 20 -22 20 -32 0 -10 5 -18 10 -18 6 0 10 -13
10 -30 0 -16 5 -30 10 -30 6 0 10 -18 10 -40 0 -22 5 -40 10 -40 6 0 10 -18
10 -40 0 -22 -4 -40 -10 -40 -5 0 -10 -18 -10 -40 0 -22 -4 -40 -10 -40 -5 0
-10 -9 -10 -20 0 -11 -4 -20 -10 -20 -5 0 -10 -9 -10 -20 0 -11 -4 -20 -10
-20 -5 0 -10 -7 -10 -15 0 -20 -105 -125 -125 -125 -8 0 -15 -4 -15 -10 0 -5
-9 -10 -20 -10 -11 0 -20 -4 -20 -10 0 -5 -9 -10 -20 -10 -11 0 -20 -4 -20
-10 0 -5 -13 -10 -30 -10 -16 0 -30 -4 -30 -10 0 -6 -30 -10 -70 -10 -40 0
-70 4 -70 10 0 6 -13 10 -30 10 -16 0 -30 5 -30 10 0 6 -9 10 -20 10 -11 0
-20 5 -20 10 0 6 -9 10 -20 10 -11 0 -20 5 -20 10 0 6 -9 10 -20 10 -11 0 -20
5 -20 10 0 6 -7 10 -16 10 -17 0 -44 23 -44 38 0 5 -13 23 -30 40 -16 18 -30
39 -30 47 0 8 -4 15 -10 15 -5 0 -10 14 -10 30 0 17 -4 30 -10 30 -5 0 -10 14
-10 30 0 17 -4 30 -10 30 -6 0 -10 27 -10 60 0 33 4 60 10 60 6 0 10 18 10 40
0 22 5 40 10 40 6 0 10 -13 10 -30 0 -16 5 -30 10 -30 6 0 10 -11 10 -25 0
-29 79 -115 105 -115 8 0 15 -4 15 -10 0 -5 14 -10 30 -10 17 0 30 -4 30 -10
0 -6 27 -10 60 -10 33 0 60 4 60 10 0 6 14 10 30 10 17 0 30 5 30 10 0 6 7 10
15 10 20 0 85 65 85 85 0 8 5 15 10 15 6 0 10 13 10 29 0 17 5 33 10 36 6 3
10 31 10 61 0 30 -4 54 -10 54 -5 0 -10 14 -10 30 0 17 -4 30 -10 30 -5 0 -10
9 -10 20 0 11 -4 20 -10 20 -5 0 -10 9 -10 20 0 11 -4 20 -10 20 -5 0 -10 14
-10 30 0 17 -4 30 -10 30 -5 0 -10 14 -10 30 0 17 -4 30 -10 30 -5 0 -10 23
-10 50 0 28 2 50 5 50 3 0 37 -31 75 -70z"/>
<path d="M3577 3993 c-24 -6 -587 -569 -587 -586 0 -7 -9 -19 -20 -27 -11 -8
-20 -22 -20 -32 0 -10 -4 -18 -10 -18 -5 0 -10 -13 -10 -30 0 -16 -4 -30 -10
-30 -5 0 -10 -13 -10 -30 0 -16 -4 -30 -10 -30 -5 0 -10 -13 -10 -30 0 -16 -4
-30 -10 -30 -5 0 -10 -18 -10 -40 0 -22 -4 -40 -10 -40 -5 0 -10 -18 -10 -40
0 -22 -4 -40 -10 -40 -5 0 -10 -11 -10 -25 0 -20 -269 -294 -1315 -1340
l-1315 -1315 -94 0 c-105 0 -106 0 -106 -76 0 -42 4 -47 95 -139 87 -87 98
-95 134 -95 23 0 47 7 59 19 20 16 22 29 22 110 l0 91 1305 1305 c1038 1038
1310 1305 1330 1305 14 0 25 5 25 10 0 6 18 10 40 10 22 0 40 5 40 10 0 6 23
10 50 10 28 0 50 5 50 10 0 6 14 10 30 10 17 0 30 5 30 10 0 6 11 10 24 10 14
0 28 5 31 10 3 6 15 10 26 10 10 0 19 5 19 10 0 6 9 10 20 10 11 0 20 5 20 10
0 6 7 10 16 10 9 0 29 14 44 30 15 17 33 30 39 30 17 0 521 508 521 524 0 8 6
16 13 19 9 3 12 36 12 123 l0 119 -90 90 -90 90 -110 2 c-60 1 -118 -1 -128
-4z"/>
<path d="M710 2320 c0 -5 -15 -10 -34 -10 -19 0 -38 -4 -41 -10 -3 -5 -19 -10
-36 -10 -16 0 -29 -4 -29 -10 0 -5 -11 -10 -24 -10 -14 0 -28 -4 -31 -10 -3
-5 -15 -10 -26 -10 -10 0 -19 -4 -19 -10 0 -6 -27 -10 -60 -10 -33 0 -60 -4
-60 -10 0 -5 -22 -10 -50 -10 -27 0 -50 -4 -50 -10 0 -5 -18 -10 -40 -10 -22
0 -40 -4 -40 -10 0 -5 -9 -10 -20 -10 -11 0 -20 -4 -20 -10 0 -5 -8 -10 -18
-10 -10 0 -24 -9 -32 -20 -8 -11 -22 -20 -32 -20 -16 0 -18 -10 -18 -70 0 -40
4 -70 10 -70 6 0 10 -8 10 -18 0 -10 9 -24 20 -32 11 -8 20 -21 20 -30 0 -9
-9 -22 -20 -30 -11 -8 -20 -22 -20 -32 0 -10 -4 -18 -10 -18 -5 0 -10 -13 -10
-29 0 -16 -6 -31 -12 -34 -19 -6 -19 -408 0 -415 6 -2 12 -12 12 -23 0 -10 5
-19 10 -19 6 0 10 -6 10 -13 0 -7 9 -23 20 -35 11 -12 20 -26 20 -32 0 -15
207 -220 223 -220 7 0 19 -9 27 -20 17 -24 74 -27 96 -6 8 8 14 26 14 40 0 14
5 26 10 26 6 0 10 14 10 30 0 17 5 30 10 30 15 0 13 177 -2 182 -7 3 14 31 50
66 44 43 62 68 62 86 0 15 5 26 10 26 16 0 12 129 -4 146 -16 16 -86 19 -86 4
0 -5 -9 -10 -20 -10 -11 0 -20 -4 -20 -10 0 -5 -9 -10 -20 -10 -11 0 -20 -4
-20 -10 0 -5 -9 -10 -20 -10 -11 0 -20 -4 -20 -10 0 -5 -22 -10 -50 -10 -27 0
-50 3 -50 6 0 11 29 34 44 34 9 0 16 5 16 10 0 6 9 10 20 10 11 0 20 5 20 10
0 6 9 10 20 10 11 0 20 5 20 10 0 6 9 10 20 10 11 0 20 5 20 10 0 6 9 10 20
10 11 0 20 5 20 10 0 6 14 10 30 10 17 0 30 5 30 10 0 6 9 10 20 10 11 0 20 5
20 10 0 6 9 10 20 10 11 0 20 5 20 10 0 6 9 10 20 10 15 0 20 -7 20 -26 0 -33
21 -54 54 -54 14 0 26 -4 26 -10 0 -5 18 -10 40 -10 22 0 40 5 40 10 0 6 7 10
15 10 20 0 85 65 85 85 0 8 5 15 10 15 6 0 10 27 10 60 0 53 2 60 20 60 11 0
20 5 20 10 0 6 9 10 20 10 11 0 20 5 20 10 0 6 9 10 20 10 11 0 20 5 20 10 0
6 7 10 15 10 8 0 29 13 47 30 17 17 35 30 40 30 4 0 42 34 83 75 61 61 75 80
75 106 0 17 -6 37 -14 45 -26 26 -56 15 -107 -37 -28 -28 -53 -48 -57 -44 -4
4 -1 10 6 12 6 3 12 11 12 20 0 19 24 43 44 43 12 0 16 10 16 36 0 45 -19 64
-64 64 -20 0 -36 5 -36 10 0 6 -80 10 -220 10 -140 0 -220 -4 -220 -10z m120
-99 c0 -6 -4 -13 -10 -16 -5 -3 -10 -26 -10 -51 0 -24 5 -44 10 -44 6 0 10
-11 10 -25 0 -29 59 -95 85 -95 8 0 15 -4 15 -8 0 -14 -23 -32 -42 -32 -10 0
-18 -4 -18 -10 0 -5 -9 -10 -20 -10 -11 0 -20 -4 -20 -10 0 -5 -9 -10 -20 -10
-11 0 -20 -4 -20 -10 0 -5 -13 -10 -30 -10 -16 0 -30 -4 -30 -10 0 -5 -9 -10
-20 -10 -11 0 -20 -4 -20 -10 0 -5 -11 -10 -24 -10 -14 0 -28 -4 -31 -10 -3
-5 -15 -10 -26 -10 -10 0 -19 -4 -19 -10 0 -5 -9 -10 -20 -10 -11 0 -20 -4
-20 -10 0 -5 -9 -10 -20 -10 -11 0 -20 -4 -20 -10 0 -5 -13 -10 -30 -10 -16 0
-30 -4 -30 -10 0 -5 -9 -10 -20 -10 -11 0 -20 -4 -20 -10 0 -5 -9 -10 -20 -10
-11 0 -20 -4 -20 -10 0 -5 -9 -10 -20 -10 -11 0 -20 -4 -20 -10 0 -5 -8 -10
-18 -10 -10 0 -24 -9 -32 -20 -15 -21 -70 -28 -70 -10 0 6 -18 10 -40 10 -22
0 -40 -4 -40 -10 0 -5 -4 -10 -10 -10 -5 0 -10 14 -10 30 0 17 5 30 10 30 6 0
10 9 10 20 0 11 5 20 10 20 6 0 10 9 10 20 0 11 5 20 10 20 6 0 10 8 10 18 0
10 9 24 20 32 11 8 20 21 20 28 0 8 14 27 30 42 17 15 30 35 30 44 0 9 7 16
16 16 8 0 33 18 54 40 21 22 44 40 50 40 7 0 25 14 40 30 15 17 35 30 44 30 9
0 16 5 16 10 0 6 9 10 20 10 11 0 20 5 20 10 0 6 9 10 20 10 11 0 20 5 20 10
0 6 9 10 20 10 11 0 20 5 20 10 0 6 14 10 30 10 17 0 30 5 30 10 0 6 20 10 44
10 25 0 48 5 51 10 8 13 65 13 65 1z m-720 -611 c0 -11 5 -20 10 -20 6 0 10
-9 10 -20 0 -11 5 -20 10 -20 6 0 10 -7 10 -15 0 -20 65 -85 85 -85 8 0 15 -4
15 -10 0 -6 37 -10 90 -10 53 0 90 4 90 10 0 6 9 10 20 10 11 0 20 -4 20 -10
0 -5 -4 -10 -10 -10 -5 0 -10 -7 -10 -15 0 -18 -44 -65 -60 -65 -17 0 -40 -26
-40 -44 0 -9 5 -16 10 -16 6 0 10 -13 10 -30 0 -16 5 -30 10 -30 6 0 10 -18
10 -40 0 -22 -4 -40 -10 -40 -5 0 -10 -13 -10 -30 0 -16 -2 -30 -5 -30 -12 0
-175 171 -175 183 0 7 -9 19 -20 27 -11 8 -20 22 -20 32 0 10 -4 18 -10 18 -5
0 -10 9 -10 20 0 11 -4 20 -10 20 -5 0 -10 14 -10 30 0 17 -4 30 -10 30 -6 0
-10 37 -10 90 0 53 4 90 10 90 6 0 10 -9 10 -20z"/>
<path d="M2830 2320 c0 -5 -16 -10 -36 -10 -19 0 -42 -6 -50 -14 -20 -20 -19
-86 2 -86 20 0 44 -24 44 -43 0 -9 6 -17 13 -20 6 -2 9 -8 5 -12 -4 -4 -29 16
-57 44 -51 52 -81 63 -107 37 -8 -8 -14 -28 -14 -45 0 -26 14 -45 75 -106 41
-41 78 -75 82 -75 5 0 24 -14 43 -30 19 -16 41 -30 48 -30 6 0 12 -4 12 -10 0
-5 9 -10 20 -10 11 0 20 -4 20 -10 0 -5 9 -10 20 -10 11 0 20 -4 20 -10 0 -5
9 -10 20 -10 17 0 20 -7 20 -50 0 -27 5 -50 10 -50 6 0 10 -11 10 -25 0 -29
59 -95 85 -95 8 0 15 -4 15 -10 0 -5 20 -10 44 -10 25 0 48 5 51 10 3 6 19 10
36 10 27 0 29 2 29 40 0 33 3 40 20 40 11 0 20 -4 20 -10 0 -5 14 -10 30 -10
17 0 30 -4 30 -10 0 -5 9 -10 20 -10 11 0 20 -4 20 -10 0 -5 9 -10 20 -10 11
0 20 -4 20 -10 0 -5 14 -10 30 -10 17 0 30 -4 30 -10 0 -5 9 -10 20 -10 11 0
20 -4 20 -10 0 -5 9 -10 20 -10 11 0 20 -4 20 -10 0 -5 7 -10 15 -10 15 0 65
-42 65 -55 0 -3 -18 -5 -40 -5 -22 0 -40 5 -40 10 0 6 -13 10 -30 10 -16 0
-30 5 -30 10 0 6 -8 10 -18 10 -10 0 -24 9 -32 20 -17 24 -74 27 -96 6 -17
-17 -20 -166 -4 -166 6 0 10 -9 10 -20 0 -11 5 -20 10 -20 6 0 10 -7 10 -16 0
-8 18 -33 40 -54 l40 -38 0 -106 c0 -64 4 -106 10 -106 6 0 10 -13 10 -30 0
-16 5 -30 10 -30 6 0 10 -7 10 -16 0 -44 83 -62 110 -24 8 11 20 20 27 20 16
0 203 185 203 200 0 6 14 24 30 42 17 17 30 37 30 44 0 8 5 14 10 14 6 0 10 9
10 19 0 11 6 21 13 23 9 4 12 54 12 208 0 154 -3 204 -12 207 -7 3 -13 18 -13
34 0 16 -4 29 -10 29 -5 0 -10 8 -10 18 0 10 -9 24 -20 32 -11 8 -20 21 -20
30 0 9 9 22 20 30 11 8 20 22 20 32 0 10 5 18 10 18 6 0 10 30 10 70 0 60 -2
70 -18 70 -10 0 -24 9 -32 20 -8 11 -22 20 -32 20 -10 0 -18 5 -18 10 0 6 -9
10 -19 10 -11 0 -23 5 -26 10 -3 6 -22 10 -41 10 -19 0 -34 5 -34 10 0 6 -22
10 -50 10 -27 0 -50 5 -50 10 0 6 -27 10 -60 10 -33 0 -60 4 -60 10 0 6 -13
10 -30 10 -16 0 -30 5 -30 10 0 6 -13 10 -30 10 -16 0 -30 5 -30 10 0 6 -13
10 -30 10 -16 0 -30 5 -30 10 0 6 -18 10 -40 10 -22 0 -40 5 -40 10 0 6 -80
10 -220 10 -140 0 -220 -4 -220 -10z m400 -100 c0 -5 18 -10 40 -10 22 0 40
-4 40 -10 0 -5 14 -10 30 -10 17 0 30 -4 30 -10 0 -5 14 -10 30 -10 17 0 30
-4 30 -10 0 -5 9 -10 20 -10 11 0 20 -4 20 -10 0 -5 8 -10 18 -10 10 0 24 -9
32 -20 8 -11 21 -20 30 -20 9 0 22 -9 30 -20 8 -11 20 -20 27 -20 17 0 163
-146 163 -163 0 -7 9 -19 20 -27 11 -8 20 -21 20 -30 0 -9 9 -22 20 -30 11 -8
20 -22 20 -32 0 -10 5 -18 10 -18 6 0 10 -13 10 -30 0 -16 5 -30 10 -30 6 0
10 -13 10 -30 0 -16 5 -30 10 -30 6 0 10 -33 10 -79 0 -44 -4 -83 -10 -86 -5
-3 -10 -17 -10 -31 0 -13 -4 -24 -10 -24 -5 0 -10 -13 -10 -30 0 -16 -4 -30
-10 -30 -5 0 -10 -8 -10 -18 0 -10 -9 -24 -20 -32 -11 -8 -20 -20 -20 -27 0
-12 -163 -183 -175 -183 -3 0 -5 9 -5 20 0 11 -4 20 -10 20 -6 0 -10 27 -10
60 0 33 4 60 10 60 6 0 10 23 10 50 0 38 -4 50 -15 50 -20 0 -85 65 -85 85 0
17 16 20 25 5 3 -6 48 -10 101 -10 56 0 94 4 94 10 0 6 7 10 15 10 20 0 85 65
85 85 0 8 5 15 10 15 6 0 10 27 10 60 l0 60 -36 0 c-25 0 -43 -7 -55 -21 l-19
-22 -29 32 c-16 17 -36 31 -45 31 -9 0 -16 5 -16 10 0 6 -9 10 -20 10 -11 0
-20 5 -20 10 0 6 -9 10 -20 10 -11 0 -20 5 -20 10 0 6 -13 10 -30 10 -16 0
-30 5 -30 10 0 6 -9 10 -20 10 -11 0 -20 5 -20 10 0 6 -9 10 -20 10 -11 0 -20
5 -20 10 0 6 -13 10 -30 10 -16 0 -30 5 -30 10 0 6 -9 10 -20 10 -11 0 -20 5
-20 10 0 6 -9 10 -20 10 -11 0 -20 5 -20 10 0 6 -13 10 -30 10 -16 0 -30 5
-30 10 0 6 -9 10 -20 10 -11 0 -20 5 -20 10 0 6 -13 10 -30 10 -16 0 -30 5
-30 10 0 6 -9 10 -20 10 -11 0 -20 5 -20 10 0 6 -9 10 -20 10 -13 0 -20 7 -20
20 0 11 7 20 15 20 20 0 65 45 65 65 0 8 5 15 10 15 6 0 10 30 10 70 0 40 -4
70 -10 70 -5 0 -10 5 -10 10 0 6 18 10 40 10 22 0 40 -4 40 -10z"/>
<path d="M2083 1915 c-18 -19 -33 -39 -33 -45 0 -5 369 -379 820 -830 l820
-820 0 -91 c0 -81 2 -94 22 -110 12 -12 36 -19 59 -19 36 0 47 8 134 95 94 94
95 96 95 143 0 26 -5 53 -12 60 -8 8 -45 12 -100 12 l-88 0 -820 820 c-616
616 -826 820 -842 819 -13 0 -38 -16 -55 -34z"/>
<path d="M1530 1220 c0 -5 -13 -10 -30 -10 -16 0 -30 -4 -30 -10 0 -5 -8 -10
-18 -10 -10 0 -24 -9 -32 -20 -8 -11 -20 -20 -27 -20 -8 0 -43 -29 -78 -65
-63 -63 -65 -66 -65 -115 0 -69 30 -100 95 -100 25 0 45 5 45 10 0 6 7 10 16
10 8 0 33 18 54 40 21 22 46 40 54 40 9 0 16 3 16 8 0 8 49 32 67 32 7 0 13 5
13 10 0 6 30 10 70 10 40 0 70 -4 70 -10 0 -5 14 -10 30 -10 17 0 30 -4 30
-10 0 -5 9 -10 20 -10 11 0 20 -4 20 -10 0 -5 14 -10 30 -10 17 0 30 -4 30
-10 0 -5 9 -10 20 -10 11 0 20 -4 20 -10 0 -5 9 -10 20 -10 11 0 20 -4 20 -10
0 -5 9 -10 20 -10 11 0 20 -4 20 -10 0 -5 9 -10 20 -10 11 0 20 -4 20 -10 0
-5 9 -10 19 -10 11 0 23 -4 26 -10 3 -5 22 -10 41 -10 19 0 34 -4 34 -10 0 -6
50 -10 130 -10 80 0 130 4 130 10 0 6 14 10 30 10 17 0 30 5 30 10 0 6 9 10
20 10 11 0 20 5 20 10 0 6 8 10 18 10 10 0 24 9 32 20 8 11 20 20 27 20 8 0
38 25 68 55 52 52 55 57 55 105 0 69 -29 100 -95 100 -25 0 -45 -4 -45 -10 0
-5 -8 -10 -18 -10 -10 0 -24 -9 -32 -20 -8 -11 -20 -20 -26 -20 -6 0 -25 -13
-42 -30 -18 -16 -39 -30 -47 -30 -8 0 -15 -4 -15 -10 0 -5 -9 -10 -20 -10 -11
0 -20 -4 -20 -10 0 -6 -30 -10 -70 -10 -40 0 -70 4 -70 10 0 6 -13 10 -30 10
-16 0 -30 5 -30 10 0 6 -6 10 -13 10 -18 0 -67 24 -67 33 0 4 -9 7 -20 7 -11
0 -20 5 -20 10 0 6 -9 10 -20 10 -11 0 -20 5 -20 10 0 6 -9 10 -20 10 -11 0
-20 5 -20 10 0 6 -9 10 -19 10 -11 0 -23 5 -26 10 -3 6 -17 10 -31 10 -13 0
-24 5 -24 10 0 6 -18 10 -40 10 -22 0 -40 5 -40 10 0 6 -53 10 -140 10 -87 0
-140 -4 -140 -10z"/>
<path d="M1530 800 c0 -5 -13 -10 -30 -10 -16 0 -30 -4 -30 -10 0 -5 -8 -10
-18 -10 -10 0 -24 -9 -32 -20 -8 -11 -20 -20 -27 -20 -8 0 -43 -29 -78 -65
-63 -63 -65 -66 -65 -115 0 -41 5 -56 25 -75 32 -33 103 -35 125 -5 8 11 21
20 28 20 8 0 27 14 42 30 15 17 35 30 44 30 9 0 16 3 16 8 0 8 49 32 67 32 7
0 13 5 13 10 0 6 30 10 70 10 40 0 70 -4 70 -10 0 -5 14 -10 30 -10 17 0 30
-4 30 -10 0 -5 9 -10 20 -10 11 0 20 -4 20 -10 0 -5 14 -10 30 -10 17 0 30 -4
30 -10 0 -5 9 -10 20 -10 11 0 20 -4 20 -10 0 -5 9 -10 20 -10 11 0 20 -4 20
-10 0 -5 9 -10 20 -10 11 0 20 -4 20 -10 0 -5 9 -10 20 -10 11 0 20 -4 20 -10
0 -5 9 -10 19 -10 11 0 23 -4 26 -10 3 -5 22 -10 41 -10 19 0 34 -4 34 -10 0
-6 50 -10 130 -10 80 0 130 4 130 10 0 6 14 10 30 10 17 0 30 5 30 10 0 6 9
10 20 10 11 0 20 5 20 10 0 6 8 10 18 10 10 0 24 9 32 20 8 11 20 20 27 20 8
0 38 25 68 55 52 52 55 57 55 105 0 71 -29 100 -101 100 -44 0 -55 -4 -79 -30
-15 -16 -33 -30 -40 -30 -7 0 -25 -14 -40 -30 -15 -16 -35 -30 -44 -30 -9 0
-16 -4 -16 -10 0 -5 -13 -10 -30 -10 -16 0 -30 -4 -30 -10 0 -5 -22 -10 -50
-10 -27 0 -50 5 -50 10 0 6 -13 10 -30 10 -16 0 -30 5 -30 10 0 6 -13 10 -30
10 -16 0 -30 5 -30 10 0 6 -9 10 -20 10 -11 0 -20 5 -20 10 0 6 -9 10 -20 10
-11 0 -20 5 -20 10 0 6 -9 10 -20 10 -11 0 -20 5 -20 10 0 6 -9 10 -20 10 -11
0 -20 5 -20 10 0 6 -9 10 -19 10 -11 0 -23 5 -26 10 -3 6 -17 10 -31 10 -13 0
-24 5 -24 10 0 6 -18 10 -40 10 -22 0 -40 5 -40 10 0 6 -53 10 -140 10 -87 0
-140 -4 -140 -10z"/>
<path d="M1530 380 c0 -5 -13 -10 -30 -10 -16 0 -30 -4 -30 -10 0 -5 -8 -10
-18 -10 -10 0 -24 -9 -32 -20 -8 -11 -20 -20 -27 -20 -8 0 -43 -29 -78 -65
-63 -63 -65 -66 -65 -116 0 -52 15 -79 44 -79 9 0 16 -4 16 -10 0 -5 14 -10
30 -10 17 0 30 5 30 10 0 6 9 10 20 10 11 0 20 5 20 10 0 6 7 10 16 10 9 0 29
14 44 30 15 17 34 30 42 30 7 0 20 9 28 20 8 11 22 20 32 20 10 0 18 5 18 10
0 6 37 10 90 10 53 0 90 -4 90 -10 0 -5 14 -10 30 -10 17 0 30 -4 30 -10 0 -5
9 -10 20 -10 11 0 20 -4 20 -10 0 -5 9 -10 20 -10 11 0 20 -4 20 -10 0 -5 9
-10 20 -10 11 0 20 -4 20 -10 0 -5 9 -10 20 -10 11 0 20 -4 20 -10 0 -5 9 -10
20 -10 11 0 20 -4 20 -10 0 -5 9 -10 20 -10 11 0 20 -4 20 -10 0 -5 8 -10 18
-10 10 0 24 -6 30 -12 18 -18 384 -18 389 0 3 6 13 12 24 12 10 0 19 5 19 10
0 6 8 10 18 10 10 0 24 9 32 20 8 11 20 20 27 20 8 0 38 25 68 55 52 52 55 57
55 105 0 71 -29 100 -101 100 -44 0 -55 -4 -79 -30 -15 -16 -33 -30 -40 -30
-7 0 -25 -14 -40 -30 -15 -17 -35 -30 -44 -30 -9 0 -16 -4 -16 -10 0 -5 -13
-10 -30 -10 -16 0 -30 -4 -30 -10 0 -13 -77 -13 -85 0 -3 6 -22 10 -41 10 -19
0 -34 5 -34 10 0 6 -13 10 -30 10 -16 0 -30 5 -30 10 0 6 -9 10 -20 10 -11 0
-20 5 -20 10 0 6 -9 10 -20 10 -11 0 -20 5 -20 10 0 6 -9 10 -20 10 -11 0 -20
5 -20 10 0 6 -9 10 -20 10 -11 0 -20 5 -20 10 0 6 -9 10 -19 10 -11 0 -23 5
-26 10 -3 6 -17 10 -31 10 -13 0 -24 5 -24 10 0 6 -18 10 -40 10 -22 0 -40 5
-40 10 0 6 -53 10 -140 10 -87 0 -140 -4 -140 -10z"/>
</g>
</svg>
